<?xml version="1.0" encoding="UTF-8"?>
<!DOCTYPE svg PUBLIC "-//W3C//DTD SVG 1.1//EN" "http://www.w3.org/Graphics/SVG/1.1/DTD/svg11.dtd">
<svg version="1.1" xmlns="http://www.w3.org/2000/svg" xmlns:xlink="http://www.w3.org/1999/xlink" x="0" y="0" width="512" height="512" viewBox="0, 0, 512, 512">
  <g id="Layer_1">
    <path d="M32,96 C32,107.485 40.321,116.806 51.806,116.806 L459.194,116.806 C470.685,116.806 480,107.491 480,96 C480,84.509 470.685,75.194 459.194,75.194 L51.806,75.194 C40.315,75.194 32,84.509 32,96 z" fill="#000000"/>
    <path d="M31,416 C31,404.509 40.315,395.194 51.806,395.194 L459.194,395.194 C470.685,395.194 480,404.509 480,416 C480,427.491 470.685,436.806 459.194,436.806 L51.806,436.806 C40.321,436.806 31,427.485 31,416 z" fill="#000000"/>
    <path d="M188,305.337 C188,293.847 197.315,284.532 208.806,284.532 L459.194,284.532 C470.685,284.532 480,293.847 480,305.337 C480,316.828 470.685,326.143 459.194,326.143 L208.806,326.143 C197.321,326.143 188,316.822 188,305.337 z" fill="#000000"/>
    <path d="M188,207 C188,195.509 197.315,186.194 208.806,186.194 L459.194,186.194 C470.685,186.194 480,195.509 480,207 C480,218.491 470.685,227.806 459.194,227.806 L208.806,227.806 C197.321,227.806 188,218.485 188,207 z" fill="#000000"/>
  </g>
  <g id="Layer_2">
    <path d="M32,256 L112.307,192.857 L112.307,230.537 L167.558,230.892 L167.558,284.035 L112.307,283.68 L112.307,319.143 z" fill="#000000"/>
  </g>
</svg>
